g moneyBag
v 1.43539 4.075241 -1.131338
v -1.43539 4.075241 -1.131338
v -1.783564E-16 4.076141 -1.456391
v -4.545895E-16 -6.219387 -3.712005
v 1.904915 4.076141 0.0001626177
v -1.904915 4.076141 0.0001626177
v 2.447605 3.177308 -1.915118
v -2.447605 3.177308 -1.915118
v 4.98092 -5.659343 0.0001925868
v -4.98092 -5.659343 0.0001925868
v 4.33252 -4.301212 -3.712005
v -4.33252 -4.301212 -3.712005
v -3.127178E-16 3.177308 -2.553535
v 2.358508E-20 -6.981992 0.0001925868
v -3.263472 3.165744 0.0001334762
v 3.263472 3.165744 0.0001334761
v 5.776692 -4.301212 0.0001925868
v -5.776692 -4.301212 0.0001925868
v -6.061271E-16 -4.301212 -4.949404
v -1.943353 5.003143 0.0001626177
v -1.385767 5.024689 -1.272921
v -1.911843E-16 5.036758 -1.561138
v 1.385767 5.024689 -1.272921
v 1.943353 5.003143 0.0001626177
v -3.597407 6.884424 0.0001849799
v -2.569224 6.756119 -2.288765
v -0.02044065 6.586765 -3.216628
v 2.622133 7.435384 -2.288765
v 3.721086 7.743891 0.0001849799
v -2.717566 7.442858 0.0001849799
v -1.998254 7.234644 -1.728106
v -0.07980814 6.948828 -2.428691
v 1.900783 7.873971 -1.728106
v 2.74524 8.109564 0.0001849799
v -1.545495 5.031631 0.0001626177
v -1.008272 5.055176 -1.102176
v -1.603615E-16 5.348633 -1.309451
v 1.008272 5.055176 -1.102176
v 1.545495 5.031631 0.0001626177
v 6.029357E-21 4.085729 4.923344E-05
v 1.43539 4.075241 1.131576
v -1.43539 4.075241 1.131576
v 1.783823E-16 4.076141 1.456602
v 4.546012E-16 -6.219387 3.712101
v 2.447605 3.177361 1.915236
v -2.447605 3.177361 1.915236
v 4.33252 -4.301212 3.712101
v -4.33252 -4.301212 3.712101
v 3.127261E-16 3.177361 2.553603
v 6.061271E-16 -4.301212 4.949403
v -1.385767 5.024689 1.273147
v 1.912093E-16 5.036758 1.561342
v 1.385767 5.024689 1.273147
v -2.569224 7.22438 2.288923
v -0.02045267 6.830369 3.216747
v 2.242653 7.758992 2.288923
v -1.998254 7.702906 1.728309
v -0.07980814 7.192358 2.428873
v 1.521303 8.197578 1.728309
v -1.008272 5.055176 1.102415
v 1.603889E-16 5.348694 1.309675
v 1.008272 5.055176 1.102415
v 3.215092 2.087097 2.53311
v 4.286789 2.073914 0.0001626177
v 3.215092 2.087067 -2.532982
v -4.136077E-16 2.087067 -3.377363
v -3.215092 2.087067 -2.532982
v -4.286789 2.073914 0.0001626177
v -3.215092 2.087097 2.53311
v 4.136153E-16 2.087097 3.377425
v 3.146033 -6.692662 0.0001925868
v -3.146033 -6.692662 0.0001925868
v 3.505748 -6.067375 -2.331502
v 3.509129 -6.059514 2.342378
v -3.508168 -6.061737 2.336163
v -3.493062 -6.096906 -2.249471
v -2.281759 4.245163 0.000175537
v -2.266789 4.77272 0.0001726794
v -1.667797 4.77478 -1.432067
v -1.667955 4.245117 -1.425853
v -2.230055E-16 4.77478 -1.820978
v -2.164738E-16 4.245316 -1.767643
v 1.668583 4.77478 -1.432067
v 1.66717 4.245117 -1.425853
v 2.266789 4.77272 0.0001726794
v 2.281759 4.245163 0.000175537
v -1.667955 4.245117 1.429007
v -1.667797 4.77478 1.429387
v 2.164999E-16 4.245316 1.767856
v 2.230305E-16 4.77478 1.821182
v 1.66717 4.245117 1.429007
v 1.668583 4.77478 1.429387
v 5.865824E-16 -2.080585 4.789808
v -4.292965 -2.080585 3.592404
v -5.723954 -2.080585 0.0001924651
v -4.292965 -2.080542 -3.592299
v -5.865809E-16 -2.080542 -4.789797
v 4.292965 -2.080542 -3.592299
v 5.723954 -2.080585 0.0001924651
v 4.292965 -2.080585 3.592404
v 5.081744E-16 0.3601067 4.149558
v 3.845271 0.3601067 3.112215
v 5.127028 0.3541847 0.0001806182
v 3.845271 0.360134 -3.112096
v -5.081697E-16 0.360134 -4.149521
v -3.845271 0.360134 -3.112096
v -5.127028 0.3541847 0.0001806182
v -3.845271 0.3601067 3.112215
v -2.717566 7.442858 0.0001849799
v -1.998254 7.234644 -1.728106
v -0.07980814 6.948828 -2.428691
v 1.900783 7.873971 -1.728106
v 2.74524 8.109564 0.0001849799
v -1.998254 7.702906 1.728309
v -0.07980814 7.192358 2.428873
v 1.521303 8.197578 1.728309
v -1.943353 5.003143 0.0001626177
v -1.385767 5.024689 -1.272921
v -1.43539 4.075241 -1.131338
v -1.904915 4.076141 0.0001626177
v -1.911843E-16 5.036758 -1.561138
v -1.783564E-16 4.076141 -1.456391
v 1.385767 5.024689 -1.272921
v 1.43539 4.075241 -1.131338
v 1.943353 5.003143 0.0001626177
v 1.904915 4.076141 0.0001626177
v -1.43539 4.075241 1.131576
v -1.385767 5.024689 1.273147
v 1.783823E-16 4.076141 1.456602
v 1.912093E-16 5.036758 1.561342
v 1.43539 4.075241 1.131576
v 1.385767 5.024689 1.273147
vt 0.6010687 0.2475328
vt 0.6010686 0.2475328
vt 0.6010687 0.3007636
vt 0.7215171 0.3007636
vt 0.6010687 0.228241
vt 0.6010686 0.228241
vt 0.6196671 0.2697471
vt 0.6196671 0.2697471
vt 0.7457876 0.2540323
vt 0.7457876 0.2540323
vt 0.7193728 0.2527967
vt 0.7193728 0.2527967
vt 0.6196671 0.3007636
vt 0.7457876 0.3007636
vt 0.6172649 0.228241
vt 0.617265 0.228241
vt 0.7457876 0.228241
vt 0.7457876 0.228241
vt 0.7193728 0.3007636
vt 0.5914046 0.228241
vt 0.5914046 0.2475328
vt 0.5914046 0.3007636
vt 0.5914046 0.2475328
vt 0.5914046 0.228241
vt 0.5818327 0.228241
vt 0.5818327 0.2475328
vt 0.5818327 0.3007636
vt 0.5818327 0.2475328
vt 0.5818327 0.228241
vt 0.5695077 0.228241
vt 0.5695078 0.2475328
vt 0.5695078 0.3007636
vt 0.5695077 0.2475328
vt 0.5695078 0.228241
vt 0.5952017 0.228241
vt 0.5952017 0.2475328
vt 0.5952017 0.3007636
vt 0.5952017 0.2475328
vt 0.5952017 0.228241
vt 0.5966027 0.2504622
vt 0.6010687 0.2475328
vt 0.6010686 0.2475328
vt 0.6010687 0.3007636
vt 0.7215171 0.3007636
vt 0.6196671 0.2697471
vt 0.6196671 0.2697471
vt 0.7193728 0.2527967
vt 0.7193728 0.2527967
vt 0.6196671 0.3007636
vt 0.7193728 0.3007636
vt 0.5914046 0.2475328
vt 0.5914046 0.3007636
vt 0.5914046 0.2475328
vt 0.5818327 0.2475328
vt 0.5818327 0.3007636
vt 0.5818327 0.2475328
vt 0.5695078 0.2475328
vt 0.5695078 0.3007636
vt 0.5695077 0.2475328
vt 0.5952017 0.2475328
vt 0.5952017 0.3007636
vt 0.5952017 0.2475328
vt 0.6349278 0.2580708
vt 0.6349278 0.228241
vt 0.6349278 0.2580708
vt 0.6349278 0.3007636
vt 0.6349278 0.2580708
vt 0.6349278 0.228241
vt 0.6349278 0.2580708
vt 0.6349278 0.3007636
vt 0.7457876 0.2777249
vt 0.7457876 0.2775943
vt 0.7252184 0.2705384
vt 0.7252184 0.2705384
vt 0.7252184 0.2705384
vt 0.7252184 0.2705384
vt 0.7806568 0.3995008
vt 0.7933542 0.3995008
vt 0.7933541 0.4230362
vt 0.7806568 0.4230362
vt 0.7933542 0.3997994
vt 0.7806568 0.3997995
vt 0.7933542 0.4230362
vt 0.7806566 0.4230362
vt 0.7933542 0.3994588
vt 0.7806566 0.3994588
vt 0.7806568 0.4230362
vt 0.7933541 0.4230362
vt 0.7806568 0.3997995
vt 0.7933542 0.3997994
vt 0.7806566 0.4230362
vt 0.7933542 0.4230362
vt 0.6937262 0.3007636
vt 0.6937262 0.2496766
vt 0.6937262 0.228241
vt 0.6937262 0.2496766
vt 0.6937262 0.3007636
vt 0.6937262 0.2496766
vt 0.6937262 0.228241
vt 0.6937262 0.2496766
vt 0.6594201 0.3007636
vt 0.6594202 0.2505351
vt 0.6594201 0.228241
vt 0.6594202 0.2505351
vt 0.6594201 0.3007636
vt 0.6594201 0.2505351
vt 0.6594201 0.228241
vt 0.6594201 0.2505351
vt 0.5818327 0.228241
vt 0.5818327 0.2475328
vt 0.5818327 0.3007636
vt 0.5818327 0.2475328
vt 0.5818327 0.228241
vt 0.5818327 0.2475328
vt 0.5818327 0.3007636
vt 0.5818327 0.2475328
vt 0.7805277 0.3995008
vt 0.7805278 0.4230362
vt 0.7765329 0.4230362
vt 0.7765329 0.3995008
vt 0.7805278 0.3997996
vt 0.7765329 0.3997995
vt 0.7805278 0.4230362
vt 0.7765329 0.4230362
vt 0.7805277 0.3994588
vt 0.7765329 0.3994588
vt 0.7766332 0.4230362
vt 0.7805278 0.4230362
vt 0.7766332 0.3997995
vt 0.7805278 0.3997996
vt 0.7766332 0.4230362
vt 0.7805278 0.4230362
vn 0.626072 -0.1103587 -0.7719162
vn -0.6260394 -0.1105075 -0.7719215
vn 1.945467E-05 -0.1170188 -0.9931297
vn -0.0003329426 -0.8525768 -0.5226019
vn 0.9002774 0.4353165 -0.0001151238
vn -0.9002876 0.4352955 -0.00011479
vn 0.4536019 0.764951 -0.4572693
vn -0.4536019 0.7649511 -0.4572693
vn 0.720004 -0.6939698 0.00024599
vn -0.7184166 -0.695613 0.0004332252
vn 0.6211529 -0.4167935 -0.6636657
vn -0.6208534 -0.4209194 -0.661338
vn 0 0.6879177 -0.7257887
vn 0 -1 0
vn -0.6461123 0.7632424 0
vn 0.6461123 0.7632424 0
vn 0.9684174 -0.2493344 1.305967E-05
vn -0.9684174 -0.2493345 1.305141E-05
vn 0 -0.2527143 -0.9675409
vn -0.9902177 0.1358855 0.03168569
vn -0.6506216 0.06304973 -0.7567802
vn 0.03417183 0.03275517 -0.998879
vn 0.674485 0.1264205 -0.7273842
vn 0.9748286 0.2185039 0.04433147
vn -0.9846199 0.1714105 -0.03379585
vn -0.6433019 0.1615362 -0.7483773
vn -0.04576918 0.1671521 -0.9848682
vn 0.5609004 0.2510699 -0.7888946
vn 0.9380866 0.3455935 0.02363432
vn 0.2404812 0.9665709 -0.08893485
vn 0.1922707 0.9695094 0.1519326
vn -0.1118004 0.9638171 0.2419861
vn -0.3661429 0.9184475 0.1496446
vn -0.3713944 0.9256447 -0.07244316
vn 0.7306814 0.6824902 -0.01765622
vn 0.425947 0.6803367 0.5964153
vn -0.02116771 0.5979466 0.8012564
vn -0.4580737 0.6406777 0.6161984
vn -0.762293 0.6462515 -0.03561217
vn 0 1 0
vn 0.6260859 -0.1110669 0.7718034
vn -0.6260532 -0.1112151 0.7718086
vn 1.924747E-05 -0.1179316 0.9930218
vn -3.14955E-05 -0.850677 0.5256889
vn 0.4535958 0.7649472 0.4572818
vn -0.4535958 0.7649472 0.4572818
vn 0.6211491 -0.4164688 0.6638731
vn -0.6211284 -0.416795 0.6636876
vn 0 0.6878996 0.7258059
vn 0 -0.2526985 0.9675451
vn -0.6355501 0.1041031 0.7650089
vn 0.03193253 0.0803028 0.996259
vn 0.6476433 0.1686175 0.7430521
vn -0.6495332 0.2065032 0.7317535
vn -0.03208955 0.2041324 0.9784172
vn 0.5363084 0.2925066 0.7917153
vn 0.210695 0.9476281 -0.2400176
vn -0.1091455 0.9617065 -0.2514117
vn -0.3868942 0.894205 -0.2251894
vn 0.4335932 0.6543031 -0.6195841
vn -0.02415642 0.573693 -0.8187141
vn -0.4590002 0.6026542 -0.6527839
vn 0.5390751 0.5590543 0.6299652
vn 0.8202579 0.5719938 0
vn 0.5390856 0.5590622 -0.6299494
vn 0 0.5059239 -0.8625781
vn -0.5390856 0.5590622 -0.6299493
vn -0.8202579 0.5719938 0
vn -0.5390751 0.5590543 0.6299653
vn 0 0.5059078 0.8625876
vn 0.2460903 -0.9692468 0.0005163348
vn -0.2455306 -0.9693879 0.001367094
vn 0.4318813 -0.8199701 -0.3756697
vn 0.4323357 -0.8192506 0.3767149
vn -0.4321501 -0.8195551 0.3762654
vn -0.4294 -0.823908 -0.3698532
vn -0.8339365 -0.5518605 -0.0001175226
vn -0.8799756 0.475019 0.0001560813
vn -0.5646499 0.4318105 -0.7033563
vn -0.5197577 -0.5756801 -0.6312245
vn -1.887456E-05 0.3448037 -0.9386748
vn 1.137917E-05 -0.548162 -0.8363722
vn 0.5647045 0.4315861 -0.7034502
vn 0.5196688 -0.5759141 -0.6310843
vn 0.8801786 0.4746427 0.0001562425
vn 0.8336576 -0.5522816 -0.000117474
vn -0.520241 -0.5746196 0.6317923
vn -0.5643169 0.4326613 0.7031007
vn 1.136298E-05 -0.5466174 0.8373825
vn -1.888843E-05 0.3460408 0.9382195
vn 0.5201522 -0.5748547 0.6316517
vn 0.5643716 0.432438 0.7031943
vn 0 0.1568925 0.9876156
vn -0.6600296 0.1565206 0.7347532
vn -0.9901979 0.1396715 1.385744E-05
vn -0.6600472 0.1565242 -0.7347366
vn 0 0.1568998 -0.9876145
vn 0.6600472 0.1565242 -0.7347366
vn 0.9901979 0.1396716 1.384134E-05
vn 0.6600296 0.1565206 0.7347531
vn 0 0.3260396 0.9453561
vn 0.6183824 0.3527928 0.7022396
vn 0.9375973 0.3477229 1.347476E-05
vn 0.6183978 0.3528023 -0.7022213
vn 0 0.3260561 -0.9453503
vn -0.6183978 0.3528023 -0.7022212
vn -0.9375973 0.3477229 1.349882E-05
vn -0.6183824 0.3527928 0.7022395
vn 0.2404812 0.9665709 -0.08893485
vn 0.1922707 0.9695094 0.1519326
vn -0.1118004 0.9638171 0.2419861
vn -0.3661429 0.9184475 0.1496446
vn -0.3713944 0.9256447 -0.07244316
vn 0.210695 0.9476281 -0.2400176
vn -0.1091455 0.9617065 -0.2514117
vn -0.3868942 0.894205 -0.2251894
vn -0.9902177 0.1358855 0.03168569
vn -0.6506216 0.06304973 -0.7567802
vn -0.6260394 -0.1105075 -0.7719215
vn -0.9002876 0.4352955 -0.00011479
vn 0.03417183 0.03275517 -0.998879
vn 1.945467E-05 -0.1170188 -0.9931297
vn 0.674485 0.1264205 -0.7273842
vn 0.626072 -0.1103587 -0.7719162
vn 0.9748286 0.2185039 0.04433147
vn 0.9002774 0.4353165 -0.0001151238
vn -0.6260532 -0.1112151 0.7718086
vn -0.6355501 0.1041031 0.7650089
vn 1.924747E-05 -0.1179316 0.9930218
vn 0.03193253 0.0803028 0.996259
vn 0.6260859 -0.1110669 0.7718034
vn 0.6476433 0.1686175 0.7430521
g moneyBag_0
f 8/8/8 6/6/6 2/2/2
f 3/3/3 8/8/8 2/2/2
f 13/13/13 8/8/8 3/3/3
f 7/7/7 13/13/13 3/3/3
f 66/66/66 13/13/13 7/7/7
f 65/65/65 66/66/66 7/7/7
f 105/105/105 66/66/66 65/65/65
f 104/104/104 105/105/105 65/65/65
f 98/98/98 105/105/105 104/104/104
f 99/99/99 98/98/98 104/104/104
f 11/11/11 98/98/98 99/99/99
f 17/17/17 11/11/11 99/99/99
f 9/9/9 11/11/11 17/17/17
f 47/47/47 9/9/9 17/17/17
f 74/74/74 9/9/9 47/47/47
f 44/44/44 74/74/74 47/47/47
f 71/71/71 74/74/74 44/44/44
f 14/14/14 71/71/71 44/44/44
f 4/4/4 71/71/71 14/14/14
f 72/72/72 4/4/4 14/14/14
f 76/76/76 4/4/4 72/72/72
f 10/10/10 76/76/76 72/72/72
f 12/12/12 76/76/76 10/10/10
f 18/18/18 12/12/12 10/10/10
f 95/95/95 12/12/12 18/18/18
f 48/48/48 95/95/95 18/18/18
f 94/94/94 95/95/95 48/48/48
f 93/93/93 94/94/94 48/48/48
f 108/108/108 94/94/94 93/93/93
f 101/101/101 108/108/108 93/93/93
f 70/70/70 108/108/108 101/101/101
f 63/63/63 70/70/70 101/101/101
f 45/45/45 70/70/70 63/63/63
f 64/64/64 45/45/45 63/63/63
f 16/16/16 45/45/45 64/64/64
f 7/7/7 16/16/16 64/64/64
f 5/5/5 16/16/16 7/7/7
f 1/1/1 5/5/5 7/7/7
f 1/1/1 7/7/7 3/3/3
f 29/29/29 53/53/53 24/24/24
f 23/23/23 29/29/29 24/24/24
f 28/28/28 29/29/29 23/23/23
f 22/22/22 28/28/28 23/23/23
f 27/27/27 28/28/28 22/22/22
f 21/21/21 27/27/27 22/22/22
f 26/26/26 27/27/27 21/21/21
f 20/20/20 26/26/26 21/21/21
f 25/25/25 26/26/26 20/20/20
f 54/54/54 25/25/25 20/20/20
f 57/57/57 25/25/25 54/54/54
f 58/58/58 57/57/57 54/54/54
f 25/25/25 57/57/57 30/30/30
f 31/31/31 25/25/25 30/30/30
f 26/26/26 25/25/25 31/31/31
f 32/32/32 26/26/26 31/31/31
f 27/27/27 26/26/26 32/32/32
f 33/33/33 27/27/27 32/32/32
f 28/28/28 27/27/27 33/33/33
f 34/34/34 28/28/28 33/33/33
f 29/29/29 28/28/28 34/34/34
f 56/56/56 29/29/29 34/34/34
f 53/53/53 29/29/29 56/56/56
f 52/52/52 53/53/53 56/56/56
f 62/62/62 115/115/115 116/116/116
f 61/61/61 115/115/115 62/62/62
f 40/40/40 61/61/61 62/62/62
f 60/60/60 61/61/61 40/40/40
f 35/35/35 60/60/60 40/40/40
f 109/109/109 60/60/60 35/35/35
f 36/36/36 109/109/109 35/35/35
f 110/110/110 109/109/109 36/36/36
f 37/37/37 110/110/110 36/36/36
f 111/111/111 110/110/110 37/37/37
f 38/38/38 111/111/111 37/37/37
f 112/112/112 111/111/111 38/38/38
f 39/39/39 112/112/112 38/38/38
f 113/113/113 112/112/112 39/39/39
f 116/116/116 113/113/113 39/39/39
f 9/9/9 74/74/74 71/71/71
f 73/73/73 9/9/9 71/71/71
f 11/11/11 9/9/9 73/73/73
f 4/4/4 11/11/11 73/73/73
f 19/19/19 11/11/11 4/4/4
f 12/12/12 19/19/19 4/4/4
f 97/97/97 19/19/19 12/12/12
f 96/96/96 97/97/97 12/12/12
f 106/106/106 97/97/97 96/96/96
f 107/107/107 106/106/106 96/96/96
f 67/67/67 106/106/106 107/107/107
f 68/68/68 67/67/67 107/107/107
f 8/8/8 67/67/67 68/68/68
f 15/15/15 8/8/8 68/68/68
f 6/6/6 8/8/8 15/15/15
f 46/46/46 6/6/6 15/15/15
f 42/42/42 6/6/6 46/46/46
f 43/43/43 42/42/42 46/46/46
f 45/45/45 5/5/5 41/41/41
f 43/43/43 45/45/45 41/41/41
f 49/49/49 45/45/45 43/43/43
f 46/46/46 49/49/49 43/43/43
f 70/70/70 49/49/49 46/46/46
f 69/69/69 70/70/70 46/46/46
f 108/108/108 70/70/70 69/69/69
f 107/107/107 108/108/108 69/69/69
f 94/94/94 108/108/108 107/107/107
f 95/95/95 94/94/94 107/107/107
f 55/55/55 52/52/52 56/56/56
f 51/51/51 52/52/52 55/55/55
f 54/54/54 51/51/51 55/55/55
f 20/20/20 51/51/51 54/54/54
f 55/55/55 58/58/58 54/54/54
f 59/59/59 58/58/58 55/55/55
f 56/56/56 59/59/59 55/55/55
f 34/34/34 59/59/59 56/56/56
f 114/114/114 60/60/60 109/109/109
f 61/61/61 60/60/60 114/114/114
f 115/115/115 61/61/61 114/114/114
f 78/78/78 117/117/117 79/79/79
f 128/128/128 117/117/117 78/78/78
f 88/88/88 128/128/128 78/78/78
f 130/130/130 128/128/128 88/88/88
f 90/90/90 130/130/130 88/88/88
f 132/132/132 130/130/130 90/90/90
f 92/92/92 132/132/132 90/90/90
f 125/125/125 132/132/132 92/92/92
f 85/85/85 125/125/125 92/92/92
f 123/123/123 125/125/125 85/85/85
f 83/83/83 123/123/123 85/85/85
f 121/121/121 123/123/123 83/83/83
f 81/81/81 121/121/121 83/83/83
f 118/118/118 121/121/121 81/81/81
f 79/79/79 118/118/118 81/81/81
f 117/117/117 118/118/118 79/79/79
f 80/80/80 119/119/119 77/77/77
f 122/122/122 119/119/119 80/80/80
f 82/82/82 122/122/122 80/80/80
f 124/124/124 122/122/122 82/82/82
f 84/84/84 124/124/124 82/82/82
f 126/126/126 124/124/124 84/84/84
f 86/86/86 126/126/126 84/84/84
f 131/131/131 126/126/126 86/86/86
f 91/91/91 131/131/131 86/86/86
f 129/129/129 131/131/131 91/91/91
f 89/89/89 129/129/129 91/91/91
f 127/127/127 129/129/129 89/89/89
f 87/87/87 127/127/127 89/89/89
f 120/120/120 127/127/127 87/87/87
f 77/77/77 120/120/120 87/87/87
f 119/119/119 120/120/120 77/77/77
f 66/66/66 8/8/8 13/13/13
f 67/67/67 8/8/8 66/66/66
f 105/105/105 67/67/67 66/66/66
f 106/106/106 67/67/67 105/105/105
f 97/97/97 106/106/106 105/105/105
f 75/75/75 10/10/10 72/72/72
f 48/48/48 10/10/10 75/75/75
f 44/44/44 48/48/48 75/75/75
f 50/50/50 48/48/48 44/44/44
f 47/47/47 50/50/50 44/44/44
f 93/93/93 50/50/50 47/47/47
f 100/100/100 93/93/93 47/47/47
f 101/101/101 93/93/93 100/100/100
f 102/102/102 101/101/101 100/100/100
f 63/63/63 101/101/101 102/102/102
f 103/103/103 63/63/63 102/102/102
f 64/64/64 63/63/63 103/103/103
f 65/65/65 64/64/64 103/103/103
f 7/7/7 64/64/64 65/65/65
f 96/96/96 95/95/95 107/107/107
f 12/12/12 95/95/95 96/96/96
f 97/97/97 11/11/11 19/19/19
f 98/98/98 11/11/11 97/97/97
f 105/105/105 98/98/98 97/97/97
f 77/77/77 88/88/88 78/78/78
f 79/79/79 77/77/77 78/78/78
f 80/80/80 77/77/77 79/79/79
f 81/81/81 80/80/80 79/79/79
f 82/82/82 80/80/80 81/81/81
f 83/83/83 82/82/82 81/81/81
f 84/84/84 82/82/82 83/83/83
f 85/85/85 84/84/84 83/83/83
f 86/86/86 84/84/84 85/85/85
f 91/91/91 86/86/86 85/85/85
f 40/40/40 36/36/36 35/35/35
f 37/37/37 36/36/36 40/40/40
f 38/38/38 37/37/37 40/40/40
f 39/39/39 62/62/62 116/116/116
f 40/40/40 62/62/62 39/39/39
f 38/38/38 40/40/40 39/39/39
f 49/49/49 70/70/70 45/45/45
f 68/68/68 46/46/46 15/15/15
f 69/69/69 46/46/46 68/68/68
f 107/107/107 69/69/69 68/68/68
f 16/16/16 5/5/5 45/45/45
f 99/99/99 47/47/47 17/17/17
f 100/100/100 47/47/47 99/99/99
f 102/102/102 100/100/100 99/99/99
f 18/18/18 10/10/10 48/48/48
f 50/50/50 93/93/93 48/48/48
f 92/92/92 91/91/91 85/85/85
f 89/89/89 91/91/91 92/92/92
f 90/90/90 89/89/89 92/92/92
f 87/87/87 89/89/89 90/90/90
f 88/88/88 87/87/87 90/90/90
f 77/77/77 87/87/87 88/88/88
f 103/103/103 104/104/104 65/65/65
f 99/99/99 104/104/104 103/103/103
f 102/102/102 99/99/99 103/103/103
f 44/44/44 72/72/72 14/14/14
f 75/75/75 72/72/72 44/44/44
f 73/73/73 71/71/71 4/4/4
f 12/12/12 4/4/4 76/76/76
